<svg xmlns="http://www.w3.org/2000/svg" width="26" height="38.313" viewBox="0 0 26 38.313">
  <g id="グループ_5" data-name="グループ 5" transform="translate(-290.377 -12.312)">
    <text id="SNS" transform="translate(302.689 47.625)" font-size="10" font-family="HiraKakuProN-W3, 游ゴシック体, Yu Gothic, YuGothic, メイリオ, Meiryo" font-weight="700"><tspan x="-9.556" y="0">SNS</tspan></text>
    <path id="youtube-play" d="M9.769,12.045l6.65-3.435L9.769,5.134ZM12.311.2q2.308,0,4.459.062t3.153.131l1,.055.234.021a3.05,3.05,0,0,1,.316.041q.1.021.323.062a1.888,1.888,0,0,1,.392.11q.165.069.385.179A2.575,2.575,0,0,1,23,1.128a3.383,3.383,0,0,1,.4.364,2.585,2.585,0,0,1,.213.254,4.678,4.678,0,0,1,.4.8,5.182,5.182,0,0,1,.364,1.388q.11.88.172,1.875t.075,1.561V9.792a29.076,29.076,0,0,1-.248,3.985,5.5,5.5,0,0,1-.343,1.367,3.467,3.467,0,0,1-.44.845l-.192.234a3.239,3.239,0,0,1-.4.364,2.344,2.344,0,0,1-.426.261q-.22.1-.385.172a1.964,1.964,0,0,1-.392.11l-.33.062q-.1.02-.316.041t-.226.021q-3.449.261-8.615.261-2.844-.027-4.94-.09t-2.754-.1l-.673-.055-.494-.055a6.434,6.434,0,0,1-.749-.137,4.26,4.26,0,0,1-.7-.289,2.736,2.736,0,0,1-.776-.564,2.586,2.586,0,0,1-.213-.254,4.678,4.678,0,0,1-.4-.8,5.181,5.181,0,0,1-.364-1.388Q.137,12.9.076,11.9T0,10.341V7.923A29.076,29.076,0,0,1,.247,3.938,5.5,5.5,0,0,1,.591,2.571a3.467,3.467,0,0,1,.44-.845l.192-.234a3.239,3.239,0,0,1,.4-.364A2.691,2.691,0,0,1,2.047.86q.219-.11.385-.179a1.981,1.981,0,0,1,.392-.11L3.147.51q.1-.02.316-.041T3.7.449Q7.145.2,12.312.2Z" transform="translate(290.378 12.111)" fill="red"/>
  </g>
</svg>
