<svg xmlns="http://www.w3.org/2000/svg" width="20.001" height="43" viewBox="0 0 20.001 43">
  <g id="グループ_382" data-name="グループ 382" transform="translate(-292 -7)">
    <path id="パス_735" data-name="パス 735" d="M19.207,30.909a3.52,3.52,0,0,0-.035.448,1.162,1.162,0,0,0,1.162,1.266,1.328,1.328,0,0,0,1.291-1.188L22.913,24.7h2.8a1.283,1.283,0,0,0,1.434-1.363c0-.777-.437-1.321-1.434-1.321h-2.29l1.2-6.288h2.941A1.267,1.267,0,0,0,29,14.364c0-.78-.437-1.306-1.437-1.306H25.131l1.107-5.74a2.823,2.823,0,0,0,.037-.409A1.319,1.319,0,0,0,25.928,6a1.146,1.146,0,0,0-.853-.372A1.278,1.278,0,0,0,23.822,6.7l-1.216,6.363h-5.2l1.109-5.74a2.825,2.825,0,0,0,.035-.409,1.323,1.323,0,0,0-.354-.918,1.149,1.149,0,0,0-.862-.367A1.277,1.277,0,0,0,16.1,6.7L14.882,13.06h-2.6a1.248,1.248,0,0,0-1.434,1.325,1.26,1.26,0,0,0,1.434,1.343h2.106l-1.2,6.286h-2.78A1.241,1.241,0,0,0,9,23.338,1.269,1.269,0,0,0,10.419,24.7h2.269l-1.2,6.209a3.133,3.133,0,0,0-.035.448,1.162,1.162,0,0,0,1.162,1.266A1.326,1.326,0,0,0,13.9,31.436L15.194,24.7h5.213l-1.2,6.209Zm-2.325-15.22h5.268l-1.2,6.386h-5.3l1.237-6.386Z" transform="translate(283 1.376)"/>
    <text id="SNS" transform="translate(302.001 47)" font-size="10" font-family="HiraKakuProN-W3, 游ゴシック体, Yu Gothic, YuGothic, メイリオ, Meiryo" font-weight="700"><tspan x="-9.556" y="0">SNS</tspan></text>
  </g>
</svg>
