<svg xmlns="http://www.w3.org/2000/svg" width="22.002" height="40" viewBox="0 0 22.002 40">
  <g id="グループ_384" data-name="グループ 384" transform="translate(-250 -10)">
    <path id="パス_41" data-name="パス 41" d="M3.716,1.83a2.4,2.4,0,0,1,3.59.223L9.772,5.223a2.393,2.393,0,0,1,.434,2.053l-.752,3.011a.933.933,0,0,0,.245.886l3.379,3.378a.933.933,0,0,0,.886.245l3.01-.752a2.4,2.4,0,0,1,2.055.434L22.2,16.944a2.4,2.4,0,0,1,.224,3.59L21,21.957a3.822,3.822,0,0,1-3.955.965,25.623,25.623,0,0,1-9.638-6.078A25.623,25.623,0,0,1,1.329,7.207a3.823,3.823,0,0,1,.965-3.957L3.717,1.828Z" transform="translate(248.876 8.873)" fill-rule="evenodd"/>
    <text id="TEL" transform="translate(261.001 47)" font-size="10" font-family="SegoeUI-Bold, Segoe UI" font-weight="700"><tspan x="-8.147" y="0">TEL</tspan></text>
  </g>
</svg>
