<svg xmlns="http://www.w3.org/2000/svg" width="21" height="38.656" viewBox="0 0 21 38.656">
  <g id="グループ_3" data-name="グループ 3" transform="translate(-260.376 -11.344)">
    <path id="パス_41" data-name="パス 41" d="M3.245,1.7a1.963,1.963,0,0,1,2.937.182L8.2,4.478a1.958,1.958,0,0,1,.355,1.68L7.939,8.621a.763.763,0,0,0,.2.725L10.9,12.109a.763.763,0,0,0,.725.2l2.462-.615a1.963,1.963,0,0,1,1.681.355l2.594,2.017A1.963,1.963,0,0,1,18.549,17l-1.164,1.164a3.126,3.126,0,0,1-3.236.79,20.962,20.962,0,0,1-7.885-4.972A20.962,20.962,0,0,1,1.291,6.1a3.128,3.128,0,0,1,.79-3.238L3.245,1.7Z" transform="translate(259.252 10.218)" fill-rule="evenodd"/>
    <text id="TEL" transform="translate(269.376 47)" font-size="10" font-family="HiraKakuProN-W3, 游ゴシック体, Yu Gothic, YuGothic, メイリオ, Meiryo" font-weight="700"><tspan x="-8.147" y="0">TEL</tspan></text>
  </g>
</svg>
